# xmcd
#
# Track frame offsets:
#	150
#	15789
#	32264
#	44124
#	58283
#	71292
#	84754
#	98373
#	115127
#	125367
#	144228
#	156872
#	171327
#	188342
#	201404
#	216799
#	232003
#	246736
#	257899
#	269463
#	286635
#	299819
#	312428
#	331184
#
# Disc length: 4620 seconds
#
# Revision: 0
# Processed by: cddbd v1.5.2PL0 Copyright (c) Steve Scherf et al.
# Submitted via: EZCDAudioConverter 2.4.0.1
#
DISCID=5b120a18
DTITLE=João Mineiro and Marciano - Só as Melhores
DYEAR=2004
DGENRE=Sertanejo
TTITLE0=Amantes e Amigos
TTITLE1=Seu Amor ainda é Tudo
TTITLE2=Vestido de Noiva
TTITLE3=Ainda Ontem Chorei de Saudade
TTITLE4=Telefone Mais
TTITLE5=Crises de Amor
TTITLE6=Aline
TTITLE7=Amor Clandestino
TTITLE8=Filho Adotivo
TTITLE9=Distantes dos Olhos (Lontano Dagli Occhi)
TTITLE10=Meu Último Amor
TTITLE11=Te Amo, Mas Adeus
TTITLE12=Carta Ao Meu Pai
TTITLE13=Amor e Amizade (Dia Sim, Dia Não)
TTITLE14=As Paredes Azuis
TTITLE15=Viola Está Chorando
TTITLE16=Chuvas de Maio (Los Aguaceros de Mayo)
TTITLE17=Canção do Nosso Adeus
TTITLE18=Whisky com Gelo
TTITLE19=Mais uma Noite Vou Dormir Sem Meu Bem
TTITLE20=Essa Noite Como Lembrança
TTITLE21=Dama da Noite
TTITLE22=Paixão Proibida
TTITLE23=Tudo Passará
EXTD=
EXTT0=
EXTT1=
EXTT2=
EXTT3=
EXTT4=
EXTT5=
EXTT6=
EXTT7=
EXTT8=
EXTT9=
EXTT10=
EXTT11=
EXTT12=
EXTT13=
EXTT14=
EXTT15=
EXTT16=
EXTT17=
EXTT18=
EXTT19=
EXTT20=
EXTT21=
EXTT22=
EXTT23=
PLAYORDER=
